<svg width="256" height="256" viewBox="0 0 256 256" fill="none" xmlns="http://www.w3.org/2000/svg">
<g clip-path="url(#clip0_118_57)">
<rect width="256" height="256" rx="35" fill="#633BBC"/>
<path d="M142.114 214.367L132.666 219.278C131.717 219.771 130.659 220.019 129.59 219.999C128.521 219.979 127.474 219.691 126.546 219.163C125.618 218.634 124.838 217.881 124.277 216.973C123.716 216.065 123.392 215.031 123.336 213.964L120.034 151.707L85.2855 168.802L80.628 190.458C79.7964 194.695 78.5843 197.02 73.7218 199.548L67.3616 202.854C66.3713 203.41 65.262 203.719 64.1276 203.756C62.9932 203.793 61.8671 203.556 60.8448 203.066C59.4094 202.369 57.5777 200.874 56.9587 197.706L50.9265 168.911C50.8822 168.696 50.8485 168.475 50.8238 168.254C50.8182 168.234 50.8089 168.216 50.7962 168.201C50.6273 168.055 50.4668 167.899 50.3155 167.735L30.1241 146.098C27.9605 143.8 27.8155 141.483 28.077 139.939C28.2525 138.902 28.6691 137.921 29.2933 137.073C29.9174 136.225 30.7318 135.535 31.6709 135.058L38.3861 131.568C42.017 129.68 46.3861 129.473 49.8226 131.02L69.8312 139.53L104.107 121.066L55.1024 82.6775C54.2621 82.019 53.6008 81.1603 53.1791 80.1799C52.7574 79.1996 52.5888 78.1288 52.6885 77.0656C52.7883 76.0023 53.1533 74.9804 53.7502 74.0934C54.3471 73.2063 55.1569 72.4824 56.1054 71.9878L65.6565 67.0232C67.0028 66.3573 68.4815 66.0025 69.9827 65.9852C71.4839 65.9679 72.969 66.2885 74.3278 66.9232L146.685 97.6707L166.909 86.4747C168.368 85.6129 172.513 83.4224 173.475 82.9224C193.094 72.7383 208.108 73.0021 213.64 83.6452C215.381 86.9947 217.268 93.9023 210.346 102.519C206.261 107.611 199.806 112.468 191.16 116.962C190.209 117.457 186.045 119.585 184.48 120.295L163.696 130.406L147.177 207.351C146.913 208.823 146.32 210.218 145.444 211.433C144.568 212.647 143.43 213.65 142.114 214.367Z" fill="white" fill-opacity="0.8"/>
</g>
<defs>
<clipPath id="clip0_118_57">
<rect width="256" height="256" fill="white"/>
</clipPath>
</defs>
</svg>
